<svg viewBox="0 0 1000 300" xmlns="http://www.w3.org/2000/svg">
  <defs>
    <linearGradient id="beruGrad" x1="0%" y1="0%" x2="100%" y2="100%">
      <stop offset="0%" stop-color="#38bdf8"/>
      <stop offset="50%" stop-color="#60a5fa"/>
      <stop offset="100%" stop-color="#a855f7"/>
    </linearGradient>
    <filter id="beruGlow" x="-20%" y="-20%" width="140%" height="140%">
      <feGaussianBlur stdDeviation="6" result="blur"/>
      <feMerge>
        <feMergeNode in="blur"/>
        <feMergeNode in="SourceGraphic"/>
      </feMerge>
    </filter>
  </defs>
  <!-- B Monogram -->
  <g transform="translate(60, 30) scale(0.8)" filter="url(#beruGlow)">
    <path d="M 40 20 L 160 20 C 220 20 250 50 250 95 C 250 125 230 145 195 155 C 240 165 265 190 265 235 C 265 285 225 310 160 310 L 40 310 Z M 95 65 L 95 135 L 155 135 C 185 135 200 120 200 100 C 200 80 185 65 155 65 Z M 95 180 L 95 265 L 165 265 C 195 265 210 250 210 222 C 210 195 195 180 165 180 Z" fill="url(#beruGrad)"/>
    <path d="M 20 180 L 220 40" stroke="#38bdf8" stroke-width="8" stroke-linecap="round"/>
  </g>
  <!-- BERU OS Wordmark -->
  <text x="340" y="165" font-family="system-ui, -apple-system, 'Segoe UI', Roboto, sans-serif" font-weight="900" font-size="110" fill="#ffffff" letter-spacing="12">BERU</text>
  <text x="710" y="165" font-family="system-ui, -apple-system, 'Segoe UI', Roboto, sans-serif" font-weight="400" font-size="110" fill="url(#beruGrad)" letter-spacing="8">OS</text>
  <text x="345" y="220" font-family="system-ui, -apple-system, 'Segoe UI', Roboto, sans-serif" font-weight="600" font-size="22" fill="#94a3b8" letter-spacing="14">ADVANCED OPERATING SYSTEM</text>
</svg>
